<svg width="1620" height="462" viewBox="0 0 1620 462" fill="none" xmlns="http://www.w3.org/2000/svg">
<mask id="mask0_137_551" style="mask-type:alpha" maskUnits="userSpaceOnUse" x="0" y="0" width="1620" height="462">
<rect width="1620" height="462" rx="20.7544" fill="white"/>
</mask>
<g mask="url(#mask0_137_551)">
<path d="M130.738 495.985L130.336 491.083L147.677 482.96L194.33 411.122L138.06 344.619L121.557 338.904L121.155 334.002L179.595 330.694L179.997 335.596L161.161 343.557L161.262 344.783L206.279 397.395L243.253 339.895L243.173 338.915L224.194 333.094L223.792 328.192L272.901 325.412L273.303 330.314L258.847 337.535L213.918 406.32L273.11 475.367L291.903 481.937L292.305 486.839L232.638 490.217L232.236 485.314L249.863 477.668L249.783 476.687L201.703 419.816L162.841 481.363L162.921 482.343L183.127 488.094L183.529 492.996L130.738 495.985ZM388.145 483.876C376.686 484.525 365.878 483.085 355.722 479.555C345.715 475.854 336.809 470.53 329.004 463.584C321.348 456.466 315.059 447.957 310.136 438.057C305.377 428.148 302.501 417.147 301.51 405.055C300.518 392.963 301.571 381.74 304.669 371.386C307.931 361.023 312.779 351.966 319.215 344.214C325.802 336.29 333.756 330.011 343.079 325.379C352.553 320.575 363.019 317.848 374.477 317.199C385.936 316.551 396.668 318.078 406.675 321.779C416.832 325.309 425.819 330.628 433.638 337.737C441.444 344.683 447.726 353.11 452.486 363.019C457.409 372.919 460.366 383.915 461.358 396.007C462.349 408.099 461.214 419.327 457.953 429.69C454.855 440.043 450.013 449.182 443.426 457.107C436.827 464.868 428.79 471.151 419.317 475.956C409.994 480.587 399.603 483.228 388.145 483.876ZM392.457 473.29C403.261 472.678 412.534 469.444 420.276 463.589C428.019 457.733 433.78 449.773 437.56 439.709C441.339 429.645 442.686 417.995 441.601 404.759C440.261 388.418 436.23 374.364 429.51 362.596C422.789 350.828 414.325 341.867 404.117 335.714C393.91 329.561 382.913 326.818 371.127 327.485C360.323 328.097 350.968 331.335 343.062 337.2C335.142 342.902 329.211 350.789 325.268 360.863C321.488 370.927 320.141 382.577 321.226 395.813C322.566 412.154 326.603 426.29 333.338 438.221C340.059 449.989 348.523 458.95 358.73 465.103C369.101 471.246 380.343 473.975 392.457 473.29ZM564.984 471.404L501.143 475.017L500.741 470.115L519.535 461.664L508.28 324.4L488.279 318.145L487.877 313.243L604.756 306.627L608.494 352.218L604.074 352.468L587.284 319.189L527.372 322.581L531.995 378.957L557.286 377.525C577.911 376.358 594.37 379.53 606.663 387.043C619.105 394.383 625.876 404.752 626.975 418.152C627.752 427.63 625.829 436.275 621.208 444.088C616.572 451.738 609.443 458.052 599.819 463.029C590.346 467.834 578.734 470.625 564.984 471.404ZM556.757 389.129L532.939 390.477L538.748 461.315L564.039 459.883C579.426 459.012 590.535 455.1 597.365 448.147C604.346 441.021 607.414 432.31 606.57 422.016C605.552 409.597 601.05 400.822 593.064 395.693C585.065 390.4 572.963 388.212 556.757 389.129ZM723.244 462.445L659.402 466.059L659 461.157L677.795 452.705L666.54 315.442L646.539 309.187L646.137 304.284L763.015 297.668L766.754 343.259L762.334 343.509L745.544 310.231L685.632 313.622L690.255 369.998L715.546 368.567C736.171 367.399 752.63 370.572 764.922 378.084C777.365 385.424 784.136 395.794 785.234 409.193C786.012 418.671 784.089 427.316 779.467 435.13C774.832 442.78 767.703 449.093 758.079 454.071C748.606 458.875 736.994 461.667 723.244 462.445ZM715.017 380.17L691.199 381.519L697.008 452.356L722.299 450.925C737.686 450.054 748.795 446.142 755.625 439.188C762.606 432.062 765.674 423.352 764.83 413.057C763.812 400.638 759.31 391.864 751.324 386.734C743.325 381.441 731.223 379.253 715.017 380.17ZM817.662 457.1L817.26 452.198L836.055 443.747L824.8 306.483L804.799 300.228L804.397 295.326L863.082 292.004L863.484 296.906L843.952 305.399L853.158 417.661L934.44 310.866L933.575 300.326L912.838 294.112L912.436 289.21L971.121 285.888L971.522 290.79L952.728 299.242L963.983 436.505L983.984 442.76L984.386 447.663L925.701 450.985L925.299 446.082L944.831 437.589L935.726 326.553L854.444 433.348L855.208 442.662L875.945 448.876L876.347 453.778L817.662 457.1ZM1069.73 442.831L1069.33 437.929L1083.56 430.967L1133.72 275.453L1142.31 274.966L1217.12 423.161L1233.11 428.658L1233.51 433.56L1176.3 436.799L1175.9 431.897L1196.49 424.328L1173.42 377.616L1112.77 381.049L1097.8 430.161L1119.42 435.094L1119.83 439.996L1069.73 442.831ZM1116.49 369.264L1167.81 366.359L1136.76 303.599L1116.49 369.264ZM1257.67 432.193L1257.27 427.291L1276.31 418.825L1265.06 281.562L1244.81 275.32L1244.41 270.418L1302.11 267.152C1321.43 266.058 1337.18 268.696 1349.38 275.065C1361.74 281.424 1368.55 292.202 1369.79 307.399C1370.53 316.387 1368.24 324.561 1362.92 331.921C1357.59 339.118 1349.86 345.055 1339.72 349.733C1329.74 354.402 1318.12 357.112 1304.86 357.863L1290.62 358.669L1295.46 417.741L1318.17 423.843L1318.57 428.746L1257.67 432.193ZM1284.15 279.742L1289.68 347.148L1309.56 346.023C1322.5 345.291 1332.56 341.684 1339.76 335.202C1346.94 328.557 1350.13 320.332 1349.33 310.528C1348.34 298.436 1343.69 289.916 1335.39 284.968C1327.26 280.011 1316.23 277.926 1302.32 278.714L1284.15 279.742ZM1440.43 421.848L1440.02 416.945L1463.97 408.202L1452.66 270.204L1409.44 272.65L1398.4 309.474L1393.98 309.724L1390.08 262.172L1532.5 254.11L1536.4 301.662L1531.98 301.912L1515.03 266.673L1471.81 269.119L1483.13 407.118L1508.28 413.081L1508.69 417.984L1440.43 421.848Z" fill="#5E5C5A" fill-opacity="0.03"/>
<path d="M-421.316 318.298L-422.419 313.504L-406.286 303.738L-370.039 228.175L-435.675 168.289L-452.951 164.325L-454.053 159.531L-396.245 150.353L-395.142 155.147L-412.788 164.904L-412.512 166.103L-360.087 213.428L-331.441 152.983L-331.661 152.024L-351.422 148.205L-352.524 143.412L-303.945 135.699L-302.843 140.493L-316.226 149.077L-351.191 221.456L-282.278 283.553L-262.595 288.129L-261.492 292.923L-320.515 302.294L-321.618 297.5L-305.132 288.175L-305.353 287.217L-361.441 236.001L-391.392 300.628L-391.171 301.587L-370.197 305.213L-369.094 310.007L-421.316 318.298ZM-166.334 280.3C-177.669 282.099 -188.654 281.773 -199.288 279.321C-209.798 276.683 -219.441 272.335 -228.22 266.276C-236.873 260.031 -244.363 252.277 -250.69 243.013C-256.855 233.723 -261.297 223.166 -264.016 211.342C-266.735 199.518 -267.291 188.344 -265.683 177.82C-263.913 167.27 -260.374 157.848 -255.064 149.552C-249.63 141.071 -242.595 134.074 -233.96 128.563C-225.2 122.866 -215.152 119.118 -203.817 117.318C-192.482 115.518 -181.56 115.937 -171.051 118.575C-160.416 121.027 -150.691 125.363 -141.876 131.582C-133.098 137.641 -125.626 145.315 -119.461 154.605C-113.135 163.869 -108.612 174.413 -105.892 186.237C-103.173 198.061 -102.698 209.248 -104.468 219.798C-106.076 230.321 -109.597 239.824 -115.032 248.305C-120.503 256.627 -127.619 263.636 -136.379 269.333C-145.014 274.844 -154.999 278.5 -166.334 280.3ZM-163.548 269.423C-152.861 267.726 -144.076 263.599 -137.192 257.04C-130.308 250.482 -125.702 242.049 -123.372 231.742C-121.043 221.435 -121.367 209.811 -124.344 196.868C-128.018 180.889 -134.049 167.438 -142.436 156.513C-150.823 145.589 -160.547 137.61 -171.607 132.575C-182.668 127.541 -194.027 125.949 -205.686 127.8C-216.374 129.497 -225.24 133.638 -232.286 140.222C-239.368 146.646 -244.155 155.024 -246.646 165.357C-248.975 175.664 -248.651 187.289 -245.675 200.232C-242 216.21 -235.951 229.742 -227.527 240.826C-219.14 251.75 -209.417 259.729 -198.356 264.764C-187.134 269.772 -175.531 271.326 -163.548 269.423ZM8.24477 250.098L-54.9076 260.125L-56.01 255.331L-38.4751 245.094L-69.3435 110.874L-90.1857 106.73L-91.2882 101.936L24.3291 83.5804L34.5819 128.161L30.2098 128.855L8.70287 97.7375L-50.5632 107.147L-37.8851 162.273L-12.867 158.301C7.53604 155.062 24.4048 156.524 37.7391 162.688C51.1987 168.667 59.4351 178.207 62.4485 191.309C64.5798 200.577 63.8999 209.297 60.4086 217.47C56.8805 225.483 50.6737 232.431 41.7883 238.313C33.028 244.01 21.8468 247.939 8.24477 250.098ZM-11.7336 169.797L-35.2943 173.538L-19.364 242.805L5.65403 238.833C20.8754 236.417 31.3945 231.434 37.2113 223.886C43.1534 216.152 44.9669 207.252 42.6517 197.185C39.8589 185.042 34.1134 176.845 25.4152 172.594C16.6803 168.185 4.29733 167.252 -11.7336 169.797ZM164.797 225.243L101.645 235.269L100.542 230.476L118.077 220.239L87.209 86.0188L66.3667 81.8749L65.2643 77.0813L180.882 58.7252L191.134 103.305L186.762 104L165.255 72.8824L105.989 82.2918L118.667 137.418L143.685 133.446C164.088 130.207 180.957 131.669 194.292 137.833C207.751 143.811 215.988 153.352 219.001 166.454C221.132 175.722 220.452 184.442 216.961 192.615C213.433 200.628 207.226 207.576 198.341 213.458C189.58 219.155 178.399 223.083 164.797 225.243ZM144.819 144.942L121.258 148.683L137.188 217.95L162.206 213.978C177.428 211.561 187.947 206.579 193.764 199.031C199.706 191.297 201.519 182.397 199.204 172.33C196.411 160.186 190.666 151.989 181.968 147.739C173.233 143.329 160.85 142.397 144.819 144.942ZM258.197 210.414L257.095 205.621L274.63 195.384L243.761 61.1636L222.919 57.0197L221.817 52.2261L279.868 43.0095L280.971 47.8031L262.707 58.1557L287.953 167.929L353.734 54.3863L351.363 44.0801L329.792 40.0519L328.69 35.2583L386.742 26.0417L387.844 30.8353L370.309 41.0722L401.177 175.292L422.02 179.436L423.122 184.23L365.071 193.446L363.968 188.653L382.232 178.3L357.261 69.7257L291.481 183.268L293.576 192.376L315.147 196.404L316.249 201.198L258.197 210.414ZM507.55 170.825L506.448 166.032L519.643 157.726L547.406 -0.708355L555.907 -2.05807L651.722 136.508L668.458 140.31L669.56 145.104L612.966 154.089L611.864 149.295L631.319 139.747L601.625 96.018L541.63 105.543L533.731 155.489L555.998 158.165L557.101 162.959L507.55 170.825ZM543.654 93.5454L594.419 85.4857L554.473 26.739L543.654 93.5454ZM693.461 141.309L692.358 136.516L710.136 126.24L679.268 -7.97985L658.182 -12.0852L657.08 -16.8787L714.16 -25.9411C733.268 -28.9747 749.36 -27.9688 762.437 -22.9233C775.676 -17.9036 784.005 -7.96365 787.422 6.89644C789.443 15.6847 788.329 23.9769 784.08 31.7732C779.794 39.4098 772.929 46.048 763.484 51.688C754.201 57.3023 743.001 61.1507 729.885 63.2331L715.797 65.4698L729.082 123.232L752.596 126.952L753.698 131.746L693.461 141.309ZM698.048 -11.7068L713.207 54.2049L732.881 51.0812C745.673 49.0503 755.195 44.4746 761.446 37.3542C767.66 30.074 769.665 21.6403 767.46 12.0532C764.741 0.229017 758.888 -7.70252 749.903 -11.7414C741.08 -15.8061 729.786 -16.7457 716.022 -14.5605L698.048 -11.7068ZM874.242 112.607L873.139 107.814L895.775 96.7672L864.741 -38.172L821.992 -31.3849L816.25 6.04602L811.878 6.74015L801.184 -39.7575L942.062 -62.1242L952.756 -15.6265L948.384 -14.9323L926.436 -47.967L883.687 -41.1799L914.721 93.7593L940.664 97.0933L941.766 101.887L874.242 112.607Z" fill="#5E5C5A" fill-opacity="0.03"/>
<path fill-rule="evenodd" clip-rule="evenodd" d="M1254.52 396.029C1299.58 347.085 1396.18 370.68 1461.27 341.136C1531.49 309.258 1564.36 211.686 1643.85 219.291C1722.03 226.77 1727.54 325.353 1782.81 371.897C1838.79 419.037 1946.76 427.026 1966.68 491.145C1986.49 554.858 1923.64 616.141 1874.82 667.952C1832.73 712.619 1774.07 741.484 1710.76 762.728C1651.63 782.572 1589.82 784.603 1526.05 784.989C1446.92 785.469 1354.98 808.791 1295.7 765.244C1236.35 721.647 1250.95 643.074 1243.65 577.536C1236.75 515.704 1209.12 445.353 1254.52 396.029Z" fill="url(#paint0_linear_137_551)"/>
<path fill-rule="evenodd" clip-rule="evenodd" d="M643.546 -190.698C670.364 -219.832 727.868 -205.787 766.607 -223.373C808.406 -242.347 827.97 -300.426 875.288 -295.899C921.824 -291.447 925.099 -232.767 957.999 -205.063C991.319 -177.004 1055.59 -172.248 1067.45 -134.082C1079.24 -96.1581 1041.83 -59.6808 1012.77 -28.8408C987.714 -2.25376 952.798 14.9277 915.115 27.5728C879.915 39.3847 843.127 40.5932 805.165 40.8233C758.068 41.1087 703.34 54.9909 668.055 29.0702C632.729 3.11973 641.423 -43.649 637.072 -82.6596C632.968 -119.464 616.519 -161.339 643.546 -190.698Z" fill="url(#paint1_linear_137_551)"/>
</g>
<defs>
<linearGradient id="paint0_linear_137_551" x1="1010.4" y1="451.5" x2="1741.81" y2="390.789" gradientUnits="userSpaceOnUse">
<stop stop-color="#B8B89C"/>
<stop offset="1" stop-color="#DDDDBE"/>
</linearGradient>
<linearGradient id="paint1_linear_137_551" x1="588.142" y1="-212.739" x2="870.819" y2="-48.5912" gradientUnits="userSpaceOnUse">
<stop stop-color="#C0C0A4"/>
<stop offset="1" stop-color="#C1C1A5"/>
</linearGradient>
</defs>
</svg>
