<svg width="17" height="16" viewBox="0 0 17 16" fill="none" xmlns="http://www.w3.org/2000/svg">
<path d="M8.92138 10.1875C9.50154 10.1875 10.0579 9.95702 10.4682 9.54679C10.8784 9.13655 11.1089 8.58015 11.1089 7.99999C11.1089 7.93593 11.1059 7.87245 11.1005 7.80976L8.73114 10.1791C8.79384 10.1846 8.85712 10.1875 8.92138 10.1875ZM16.162 1.23359L15.3276 0.399992C15.2983 0.370711 15.2586 0.354263 15.2172 0.354263C15.1758 0.354263 15.136 0.370711 15.1067 0.399992L12.9716 2.53573C11.7937 1.93378 10.4697 1.6328 8.9995 1.6328C5.2456 1.6328 2.44481 3.58788 0.597159 7.49804C0.522892 7.6553 0.484375 7.82705 0.484375 8.00097C0.484375 8.17488 0.522892 8.34664 0.597159 8.5039C1.33544 10.059 2.22444 11.3054 3.26415 12.2432L1.19794 14.3086C1.16866 14.3379 1.15221 14.3776 1.15221 14.419C1.15221 14.4605 1.16866 14.5002 1.19794 14.5295L2.03173 15.3633C2.06103 15.3926 2.10076 15.409 2.14218 15.409C2.1836 15.409 2.22333 15.3926 2.25263 15.3633L16.162 1.45468C16.1765 1.44017 16.1881 1.42294 16.1959 1.40397C16.2038 1.385 16.2078 1.36467 16.2078 1.34413C16.2078 1.3236 16.2038 1.30327 16.1959 1.2843C16.1881 1.26533 16.1765 1.2481 16.162 1.23359ZM5.48388 7.99999C5.48382 7.40625 5.63756 6.82262 5.9301 6.30596C6.22265 5.78929 6.64403 5.35721 7.1532 5.05181C7.66237 4.7464 8.24196 4.57808 8.83551 4.56325C9.42907 4.54842 10.0163 4.68758 10.5401 4.96718L9.59052 5.91679C9.20755 5.79416 8.7982 5.77939 8.40739 5.8741C8.01658 5.96881 7.65941 6.16934 7.37507 6.45368C7.09073 6.73803 6.8902 7.0952 6.79549 7.48601C6.70078 7.87682 6.71555 8.28616 6.83817 8.66913L5.88857 9.61874C5.62208 9.12085 5.48305 8.56471 5.48388 7.99999Z" fill="#BDBDBD"/>
</svg>
